<svg xmlns="http://www.w3.org/2000/svg" viewBox="0 0 640 480" role="img" aria-label="Canada">
  <rect width="640" height="480" fill="#fff"/>
  <path fill="#d52b1e" d="M0 0h160v480H0zm480 0h160v480H480z"/>
  <path fill="#d52b1e" d="m320 88.5-18.7 34.9c-2.1 3.8-5.9 3.4-9.8 1.3l-13.6-7 10.1 53.9c2.1 9.8-4.7 9.8-8.1 5.6l-23.6-26.4-3.8 13.4c-.4 1.8-2.4 3.6-5.3 3.2l-29.9-6.3 7.9 28.6c1.7 6.4 3 9.1-1.7 10.8l-10.7 5 51.8 42.1c2 1.6 3.1 4.5 2.3 7.1l-4.5 14.9c17.8-2.1 33.8-5.1 51.6-7.1 1.6 0 4.2 2.4 4.2 4.2l-2.4 54.7h8.7l-1.4-54.6c0-1.8 2.4-4.3 4-4.3 17.8 2 33.8 5 51.6 7.1l-4.5-14.9c-.8-2.6.3-5.5 2.3-7.1l51.8-42.1-10.7-5c-4.7-1.7-3.4-4.4-1.7-10.8l7.9-28.6-29.9 6.3c-2.9.4-4.9-1.4-5.3-3.2l-3.8-13.4-23.6 26.4c-3.4 4.2-10.2 4.2-8.1-5.6l10.1-53.9-13.6 7c-3.9 2.1-7.7 2.5-9.8-1.3z"/>
</svg>
